<?xml version="1.0" encoding="UTF-8"?>
<svg width="400px" height="304px" viewBox="0 0 400 304" version="1.1" xmlns="http://www.w3.org/2000/svg" xmlns:xlink="http://www.w3.org/1999/xlink">
    <!-- Generator: Sketch 64 (93537) - https://sketch.com -->
    <title>Group 15</title>
    <desc>Created with Sketch.</desc>
    <defs>
        <polygon id="path-1" points="0 0.732 227.9164 0.732 227.9164 301.9992 0 301.9992"></polygon>
    </defs>
    <g id="Page-1" stroke="none" stroke-width="1" fill="none" fill-rule="evenodd">
        <g id="Group-15" transform="translate(0.000000, -1.000000)">
            <g id="Group-10" transform="translate(0.000000, 0.268000)">
                <g id="Group-3">
                    <mask id="mask-2" fill="white">
                        <use xlink:href="#path-1"></use>
                    </mask>
                    <g id="Clip-2"></g>
                    <path d="M227.9164,83.1792 L214.2284,107.2812 L167.4134,24.8332 L23.6994,277.8992 L121.0024,277.8992 C121.0024,291.2092 131.6154,301.9992 144.7064,301.9992 L23.6994,301.9992 C15.2314,301.9992 7.4074,297.4042 3.1744,289.9472 C-1.0586,282.4912 -1.0586,273.3042 3.1754,265.8482 L146.8894,12.7832 C151.1234,5.3252 158.9494,0.7312 167.4174,0.7312 C175.8864,0.7312 183.7114,5.3252 187.9464,12.7832 L227.9164,83.1792 Z" id="Fill-1" fill="#000000" mask="url(#mask-2)"></path>
                </g>
                <path d="M331.6595,265.8482 L241.6055,107.2812 L227.9165,83.1792 L214.2275,107.2812 L124.1825,265.8482 C119.9495,273.3042 119.9495,282.4912 124.1815,289.9472 C128.4155,297.4042 136.2395,301.9992 144.7065,301.9992 L311.1065,301.9992 C319.5765,301.9992 327.4025,297.4092 331.6385,289.9522 C335.8745,282.4942 335.8745,273.3062 331.6395,265.8482 L331.6595,265.8482 Z" id="Fill-4" stroke="#979797" fill="#FFF14B"></path>
                <path d="M331.6595,265.8482 L241.6055,107.2812 L227.9165,83.1792 L214.2275,107.2812 L124.1825,265.8482 C119.9495,273.3042 119.9495,282.4912 124.1815,289.9472 C128.4155,297.4042 136.2395,301.9992 144.7065,301.9992 L311.1065,301.9992 C319.5765,301.9992 327.4025,297.4092 331.6385,289.9522 C335.8745,282.4942 335.8745,273.3062 331.6395,265.8482 L331.6595,265.8482 Z" id="Stroke-6" stroke="#000000" stroke-width="4"></path>
                <path d="M396.0453,289.9497 C391.8123,297.4047 383.9883,301.9997 375.5223,301.9997 L311.1073,301.9997 C324.1973,301.9997 334.8103,291.2097 334.8103,277.8987 L375.4723,277.8987 L260.0943,74.7137 L241.6053,107.2807 L227.9163,83.1787 L239.5703,62.6627 C243.8053,55.2057 251.6303,50.6117 260.0993,50.6117 C268.5673,50.6117 276.3943,55.2057 280.6273,62.6627 L396.0453,265.8477 C400.2783,273.3047 400.2783,282.4927 396.0453,289.9497" id="Fill-8" fill="#000000"></path>
            </g>
            <g id="Group-14" transform="translate(180.000000, 177.268000)">
                <path d="M48.5111,89.1968 C48.2431,89.1968 47.9881,89.1868 47.7941,89.1768 C47.6401,89.1908 47.4811,89.1968 47.3221,89.1968 C41.7011,89.1968 37.9451,86.5398 34.6281,84.1938 C32.2521,82.5148 30.0111,80.9298 27.3851,80.4938 C26.0951,80.2798 24.8121,80.1718 23.5731,80.1718 C21.3391,80.1718 19.5741,80.5168 18.2861,80.7688 C17.4931,80.9248 16.8091,81.0568 16.2811,81.0568 C15.7271,81.0568 15.0541,80.9338 14.7741,79.9768 C14.5521,79.2218 14.3931,78.4908 14.2391,77.7868 C13.8541,76.0268 13.5751,74.9528 12.9161,74.8498 C5.8681,73.7628 1.7031,72.1608 0.8741,70.2208 C0.7871,70.0168 0.7391,69.8118 0.7281,69.6088 C0.6961,69.0308 1.1041,68.5238 1.6741,68.4288 C7.2711,67.5078 12.2481,64.5498 16.4671,59.6338 C19.7351,55.8278 21.3401,52.1908 21.5131,51.7898 C21.5201,51.7718 21.5291,51.7528 21.5381,51.7358 C22.3511,50.0858 22.5131,48.6598 22.0211,47.4988 C21.1131,45.3568 18.1041,44.4028 16.1151,43.7708 C15.6191,43.6148 15.1521,43.4668 14.7791,43.3188 C13.0141,42.6218 10.1141,41.1498 10.5001,39.1178 C10.7821,37.6348 12.7411,36.6038 14.3251,36.6038 C14.7651,36.6038 15.1551,36.6808 15.4831,36.8358 C17.2731,37.6738 18.8831,38.0978 20.2671,38.0978 C21.9901,38.0978 22.8221,37.4428 23.0231,37.2568 C22.9731,36.3378 22.9121,35.3668 22.8541,34.4478 C22.8541,34.4468 22.8531,34.4358 22.8531,34.4358 C22.4491,28.0058 21.9451,20.0028 23.9911,15.4138 C30.1181,1.6758 43.1121,0.6078 46.9471,0.6078 C47.0481,0.6078 48.6171,0.5928 48.6171,0.5928 C48.6891,0.5918 48.7661,0.5908 48.8451,0.5908 C52.6911,0.5908 65.7111,1.6598 71.8411,15.4048 C73.8891,19.9978 73.3841,28.0068 72.9791,34.4438 L72.9591,34.7528 C72.9041,35.6268 72.8531,36.4538 72.8091,37.2558 C72.9981,37.4298 73.7601,38.0308 75.3081,38.0928 C76.6281,38.0418 78.1461,37.6188 79.8161,36.8368 C80.3321,36.5928 80.9051,36.5438 81.2921,36.5438 C81.8791,36.5438 82.4771,36.6578 82.9741,36.8648 L83.0001,36.8758 C84.4181,37.3788 85.3471,38.3838 85.3661,39.4408 C85.3841,40.4258 84.6531,41.8968 81.0531,43.3188 C80.6851,43.4658 80.2141,43.6138 79.7171,43.7718 C77.7261,44.4038 74.7201,45.3578 73.8121,47.4988 C73.3191,48.6588 73.4811,50.0848 74.2941,51.7338 C74.3031,51.7528 74.3111,51.7698 74.3201,51.7898 C74.5711,52.3768 80.6331,66.1998 94.1581,68.4278 C94.7291,68.5228 95.1381,69.0308 95.1051,69.6078 C95.0931,69.8148 95.0431,70.0228 94.9551,70.2248 C94.1311,72.1548 89.9671,73.7548 82.9171,74.8428 C82.2551,74.9458 81.9771,76.0148 81.5951,77.7658 C81.4381,78.4888 81.2771,79.1978 81.0581,79.9428 C80.8531,80.6428 80.3971,80.9848 79.6631,80.9848 L79.5531,80.9848 C79.0751,80.9848 78.4001,80.8988 77.5471,80.7318 C76.0571,80.4418 74.3861,80.1718 72.2601,80.1718 C71.0211,80.1718 69.7391,80.2808 68.4481,80.4948 C65.8241,80.9308 63.5831,82.5128 61.2111,84.1908 C57.8881,86.5398 54.1301,89.1968 48.5111,89.1968" id="Fill-11" fill="#FFFFFF"></path>
                <path d="M48.5111,89.1968 C48.2431,89.1968 47.9881,89.1868 47.7941,89.1768 C47.6401,89.1908 47.4811,89.1968 47.3221,89.1968 C41.7011,89.1968 37.9451,86.5398 34.6281,84.1938 C32.2521,82.5148 30.0111,80.9298 27.3851,80.4938 C26.0951,80.2798 24.8121,80.1718 23.5731,80.1718 C21.3391,80.1718 19.5741,80.5168 18.2861,80.7688 C17.4931,80.9248 16.8091,81.0568 16.2811,81.0568 C15.7271,81.0568 15.0541,80.9338 14.7741,79.9768 C14.5521,79.2218 14.3931,78.4908 14.2391,77.7868 C13.8541,76.0268 13.5751,74.9528 12.9161,74.8498 C5.8681,73.7628 1.7031,72.1608 0.8741,70.2208 C0.7871,70.0168 0.7391,69.8118 0.7281,69.6088 C0.6961,69.0308 1.1041,68.5238 1.6741,68.4288 C7.2711,67.5078 12.2481,64.5498 16.4671,59.6338 C19.7351,55.8278 21.3401,52.1908 21.5131,51.7898 C21.5201,51.7718 21.5291,51.7528 21.5381,51.7358 C22.3511,50.0858 22.5131,48.6598 22.0211,47.4988 C21.1131,45.3568 18.1041,44.4028 16.1151,43.7708 C15.6191,43.6148 15.1521,43.4668 14.7791,43.3188 C13.0141,42.6218 10.1141,41.1498 10.5001,39.1178 C10.7821,37.6348 12.7411,36.6038 14.3251,36.6038 C14.7651,36.6038 15.1551,36.6808 15.4831,36.8358 C17.2731,37.6738 18.8831,38.0978 20.2671,38.0978 C21.9901,38.0978 22.8221,37.4428 23.0231,37.2568 C22.9731,36.3378 22.9121,35.3668 22.8541,34.4478 C22.8541,34.4468 22.8531,34.4358 22.8531,34.4358 C22.4491,28.0058 21.9451,20.0028 23.9911,15.4138 C30.1181,1.6758 43.1121,0.6078 46.9471,0.6078 C47.0481,0.6078 48.6171,0.5928 48.6171,0.5928 C48.6891,0.5918 48.7661,0.5908 48.8451,0.5908 C52.6911,0.5908 65.7111,1.6598 71.8411,15.4048 C73.8891,19.9978 73.3841,28.0068 72.9791,34.4438 L72.9591,34.7528 C72.9041,35.6268 72.8531,36.4538 72.8091,37.2558 C72.9981,37.4298 73.7601,38.0308 75.3081,38.0928 C76.6281,38.0418 78.1461,37.6188 79.8161,36.8368 C80.3321,36.5928 80.9051,36.5438 81.2921,36.5438 C81.8791,36.5438 82.4771,36.6578 82.9741,36.8648 L83.0001,36.8758 C84.4181,37.3788 85.3471,38.3838 85.3661,39.4408 C85.3841,40.4258 84.6531,41.8968 81.0531,43.3188 C80.6851,43.4658 80.2141,43.6138 79.7171,43.7718 C77.7261,44.4038 74.7201,45.3578 73.8121,47.4988 C73.3191,48.6588 73.4811,50.0848 74.2941,51.7338 C74.3031,51.7528 74.3111,51.7698 74.3201,51.7898 C74.5711,52.3768 80.6331,66.1998 94.1581,68.4278 C94.7291,68.5228 95.1381,69.0308 95.1051,69.6078 C95.0931,69.8148 95.0431,70.0228 94.9551,70.2248 C94.1311,72.1548 89.9671,73.7548 82.9171,74.8428 C82.2551,74.9458 81.9771,76.0148 81.5951,77.7658 C81.4381,78.4888 81.2771,79.1978 81.0581,79.9428 C80.8531,80.6428 80.3971,80.9848 79.6631,80.9848 L79.5531,80.9848 C79.0751,80.9848 78.4001,80.8988 77.5471,80.7318 C76.0571,80.4418 74.3861,80.1718 72.2601,80.1718 C71.0211,80.1718 69.7391,80.2808 68.4481,80.4948 C65.8241,80.9308 63.5831,82.5128 61.2111,84.1908 C57.8881,86.5398 54.1301,89.1968 48.5111,89.1968" id="Stroke-13" stroke="#000000" stroke-width="4"></path>
            </g>
        </g>
    </g>
</svg>